<svg width="40" height="40" viewBox="0 0 40 40" fill="none" xmlns="http://www.w3.org/2000/svg">
    <path fill-rule="evenodd" clip-rule="evenodd"
          d="M2 2H38V38H2V2ZM0 0H2H38H40V2V38V40H38H2H0V38V2V0ZM12.5 10C11.6716 10 11 10.6716 11 11.5C11 12.3284 11.6716 13 12.5 13H27.5C28.3284 13 29 12.3284 29 11.5C29 10.6716 28.3284 10 27.5 10H12.5ZM11 19.5C11 18.6716 11.6716 18 12.5 18H20.5C21.3284 18 22 18.6716 22 19.5C22 20.3284 21.3284 21 20.5 21H12.5C11.6716 21 11 20.3284 11 19.5ZM12.5 26C11.6716 26 11 26.6716 11 27.5C11 28.3284 11.6716 29 12.5 29H15.5C16.3284 29 17 28.3284 17 27.5C17 26.6716 16.3284 26 15.5 26H12.5Z"
          fill="#051F33"/>
</svg>
